# Spring Unit export, Created by Beherith mysterme@gmail.com with the help of Muon 
# arguments of an object 'o' piecename:
# Mxyz = midpoint of an s3o
# r = unit radius
# h = height
#			 t1 t2 = textures 1 and 2
# Oxyz = piece offset
# p = parent
o base,ox=-0.00,oy=0.00,oz=0.00,p=,mx=0.00,my=10.00,mz=0.00,r=20.00,h=13.00,t1=Arm_color.dds,t2=Arm_other.dds
v -7.305704 9.384672 -4.994893
vn 0.505140 0.863037 0.000001
vt 0.655564129 0.530815661
v -12.743554 12.567474 -4.994893
vn 0.505140 0.863037 0.000001
vt 0.648734212 0.530815661
v -7.305719 9.384672 4.877660
vn 0.505140 0.863037 0.000001
vt 0.655564129 0.520028055
vn 0.505140 0.863037 0.000001
vt 0.648734212 0.530815661
v -12.743569 12.567474 4.877661
vn 0.505140 0.863037 0.000001
vt 0.648734391 0.520028055
vn 0.505140 0.863037 0.000001
vt 0.655564129 0.520028055
vn -0.707108 -0.000000 -0.707106
vt 0.644014060 0.520949066
v -4.983987 9.384672 -7.316615
vn -0.707108 -0.000000 -0.707106
vt 0.639070451 0.520949066
v -4.983995 0.000338 -7.316610
vn -0.707108 -0.000000 -0.707106
vt 0.639058530 0.530418813
vn -0.707108 -0.000000 -0.707106
vt 0.644014060 0.520949066
vn -0.707108 -0.000000 -0.707106
vt 0.639058530 0.530418813
v -7.305711 0.000338 -4.994890
vn -0.707107 0.000000 -0.707106
vt 0.644002140 0.530418873
v -7.305711 0.000338 4.877662
vn -0.707105 -0.000000 0.707108
vt 0.639058530 0.530418873
v -4.983995 9.384673 7.199375
vn -0.707105 -0.000000 0.707108
vt 0.644014299 0.520949125
vn -0.707105 -0.000000 0.707108
vt 0.639070451 0.520949125
vn -0.707105 -0.000000 0.707108
vt 0.639058530 0.530418873
v -4.983987 0.000338 7.199382
vn -0.707107 0.000000 0.707107
vt 0.644002378 0.530418873
vn -0.707105 -0.000000 0.707108
vt 0.644014299 0.520949125
vn -0.000000 1.000000 0.000000
vt 0.648741305 0.520028114
v -16.076380 12.567474 -4.994893
vn -0.000000 1.000000 0.000000
vt 0.644957125 0.530815661
v -16.076387 12.567474 4.877662
vn -0.000000 1.000000 0.000000
vt 0.644957125 0.520028114
vn -0.000000 1.000000 0.000000
vt 0.648741305 0.520028114
vn -0.000000 1.000000 0.000000
vt 0.648741305 0.530815661
vn -0.000000 1.000000 0.000000
vt 0.644957125 0.530815661
v 12.648139 12.567474 -4.994892
vn -0.505140 0.863037 -0.000001
vt 0.648734391 0.520028114
v 7.210288 9.384672 -4.994890
vn -0.505140 0.863037 -0.000001
vt 0.655564129 0.520028114
v 12.648124 12.567474 4.877662
vn -0.505140 0.863037 -0.000001
vt 0.648734212 0.530815780
vn -0.505140 0.863037 -0.000001
vt 0.655564129 0.520028114
v 7.210272 9.384672 4.877662
vn -0.505140 0.863037 -0.000001
vt 0.655564129 0.530815840
vn -0.505140 0.863037 -0.000001
vt 0.648734212 0.530815780
vn -0.000000 1.000000 0.000000
vt 0.648741305 0.520028174
v 15.980948 12.567474 4.877664
vn -0.000000 1.000000 0.000000
vt 0.644957125 0.530815780
v 15.980956 12.567474 -4.994890
vn -0.000000 1.000000 0.000000
vt 0.644957125 0.520028174
vn -0.000000 1.000000 0.000000
vt 0.648741305 0.520028174
vn 0.000000 1.000000 -0.000000
vt 0.648741305 0.530815780
vn -0.000000 1.000000 0.000000
vt 0.644957125 0.530815780
v 15.980948 0.000338 -4.994890
vn 1.000000 -0.000000 -0.000000
vt 0.625825346 0.513742507
vn 1.000000 -0.000000 -0.000000
vt 0.625841856 0.501075208
v 15.980956 0.000338 4.877662
vn 1.000000 -0.000000 -0.000000
vt 0.639069974 0.513742507
vn 1.000000 -0.000000 -0.000000
vt 0.625841856 0.501075208
vn 1.000000 0.000000 0.000001
vt 0.639086485 0.501075208
vn 1.000000 -0.000000 -0.000000
vt 0.639069974 0.513742507
v 4.888564 9.384672 -7.316603
vn -0.000001 0.863037 0.505140
vt 0.655564129 0.530815661
v 4.888564 12.567472 -12.754454
vn -0.000001 0.863037 0.505140
vt 0.648734391 0.530815661
vn -0.000001 0.863037 0.505140
vt 0.655564129 0.520028055
vn -0.000001 0.863037 0.505140
vt 0.648734391 0.530815661
v -4.983987 12.567472 -12.754463
vn -0.000000 0.863037 0.505140
vt 0.648734212 0.520028055
vn -0.000001 0.863037 0.505140
vt 0.655564129 0.520028055
v 4.888564 0.000339 15.970052
vn -0.000000 -0.000000 1.000000
vt 0.625825584 0.513742507
v 4.888564 12.567474 15.970054
vn -0.000000 -0.000000 1.000000
vt 0.625841856 0.501075149
v -4.983987 0.000339 15.970052
vn -0.000000 -0.000000 1.000000
vt 0.639070213 0.513742507
vn -0.000000 -0.000000 1.000000
vt 0.625841856 0.501075149
v -4.983995 12.567474 15.970048
vn -0.000001 0.000000 1.000000
vt 0.639086485 0.501075149
vn -0.000000 -0.000000 1.000000
vt 0.639070213 0.513742507
v -4.983995 12.567474 12.637226
vn 0.000001 0.863037 -0.505140
vt 0.648734391 0.530815661
v 4.888564 9.384673 7.199387
vn 0.000001 0.863037 -0.505140
vt 0.655564129 0.520027936
vn 0.000001 0.863037 -0.505140
vt 0.655564129 0.530815661
vn 0.000001 0.863037 -0.505140
vt 0.648734391 0.530815661
v 4.888564 12.567474 12.637239
vn 0.000001 0.863037 -0.505140
vt 0.648734212 0.520027936
vn 0.000001 0.863037 -0.505140
vt 0.655564129 0.520027936
vn -1.000000 -0.000000 0.000000
vt 0.625841856 0.501075208
v -16.076380 0.000338 -4.994890
vn -1.000000 -0.000000 0.000000
vt 0.639070213 0.513742507
v -16.076380 0.000338 4.877666
vn -1.000000 -0.000000 0.000000
vt 0.625825584 0.513742507
vn -1.000000 -0.000000 0.000000
vt 0.625841856 0.501075208
vn -1.000000 0.000000 -0.000001
vt 0.639086485 0.501075208
vn -1.000000 -0.000000 0.000000
vt 0.639070213 0.513742507
vn 0.000000 1.000000 -0.000000
vt 0.642874599 0.500483811
vn 0.000000 1.000000 -0.000000
vt 0.639883876 0.503521681
vn 0.000000 1.000000 -0.000000
vt 0.642874599 0.519477248
vn 0.000000 1.000000 -0.000000
vt 0.639883876 0.503521681
vn 0.000000 1.000000 -0.000000
vt 0.639883876 0.516439378
vn 0.000000 1.000000 -0.000000
vt 0.642874599 0.519477248
vn 0.707107 0.000000 0.707107
vt 0.644014060 0.520949125
v 4.888564 0.000338 7.199380
vn 0.707107 0.000000 0.707107
vt 0.639058530 0.530418873
v 7.210280 0.000338 4.877660
vn 0.707107 0.000000 0.707107
vt 0.644002378 0.530418873
vn 0.707107 0.000000 0.707107
vt 0.644014060 0.520949125
vn 0.707108 -0.000000 0.707105
vt 0.639070213 0.520949125
vn 0.707107 0.000000 0.707107
vt 0.639058530 0.530418873
v 7.210280 0.000338 -4.994893
vn 0.707105 -0.000000 -0.707109
vt 0.639058053 0.530418873
vn 0.707105 -0.000000 -0.707109
vt 0.644014299 0.520949125
vn 0.707105 -0.000000 -0.707109
vt 0.639070213 0.520949125
vn 0.707105 -0.000000 -0.707109
vt 0.639058053 0.530418873
v 4.888564 0.000338 -7.316609
vn 0.707106 0.000001 -0.707107
vt 0.644002378 0.530418873
vn 0.707105 -0.000000 -0.707109
vt 0.644014299 0.520949125
v -4.983987 0.000337 -16.087280
vn -0.000000 -0.000000 -1.000000
vt 0.625825584 0.513742507
v -4.983987 12.567472 -16.087282
vn -0.000000 -0.000000 -1.000000
vt 0.625841856 0.501075208
v 4.888556 0.000337 -16.087280
vn -0.000000 -0.000000 -1.000000
vt 0.639069974 0.513742507
vn -0.000000 -0.000000 -1.000000
vt 0.625841856 0.501075208
v 4.888564 12.567472 -16.087275
vn 0.000001 0.000000 -1.000000
vt 0.639086485 0.501075208
vn -0.000000 -0.000000 -1.000000
vt 0.639069974 0.513742507
vn 0.000000 1.000000 -0.000000
vt 0.648741305 0.520028114
vn 0.000000 1.000000 -0.000000
vt 0.644957125 0.530815661
vn 0.000000 1.000000 -0.000000
vt 0.644957125 0.520028114
vn 0.000000 1.000000 -0.000000
vt 0.648741305 0.520028114
vn -0.000000 1.000000 0.000000
vt 0.648741305 0.530815661
vn 0.000000 1.000000 -0.000000
vt 0.644957125 0.530815661
vn -0.000000 1.000000 0.000000
vt 0.648741305 0.530815661
vn -0.000000 1.000000 0.000000
vt 0.644957125 0.530815661
vn -0.000000 1.000000 0.000000
vt 0.648741305 0.520028055
vn -0.000000 1.000000 0.000000
vt 0.644957125 0.530815661
vn -0.000000 1.000000 0.000000
vt 0.644957125 0.520028055
vn -0.000000 1.000000 0.000000
vt 0.648741305 0.520028055
vn -0.000000 -0.000000 -1.000000
vt 0.639057338 0.530418873
vn -0.000000 -0.000000 -1.000000
vt 0.625820279 0.530418873
vn -0.000000 -0.000000 -1.000000
vt 0.639072299 0.520949066
vn -0.000000 -0.000000 -1.000000
vt 0.625820279 0.530418873
vn -0.000000 -0.000000 -1.000000
vt 0.630840123 0.516141057
vn -0.000000 -0.000000 -1.000000
vt 0.639072299 0.520949066
vn -0.000000 -0.000000 -1.000000
vt 0.625820279 0.530418873
vn -0.000000 -0.000000 -1.000000
vt 0.625836611 0.516141057
vn -0.000000 -0.000000 -1.000000
vt 0.630840123 0.516141057
vn -0.000001 -0.000000 1.000000
vt 0.625820518 0.530418873
vn -0.000001 -0.000000 1.000000
vt 0.625836611 0.516141117
vn -0.000001 -0.000000 1.000000
vt 0.630840123 0.516141117
vn -0.000001 -0.000000 1.000000
vt 0.625820518 0.530418873
vn -0.000001 -0.000000 1.000000
vt 0.630840123 0.516141117
vn -0.000000 -0.000000 1.000000
vt 0.639072299 0.520949125
vn -0.000001 -0.000000 1.000000
vt 0.625820518 0.530418873
vn -0.000000 -0.000000 1.000000
vt 0.639072299 0.520949125
vn -0.000000 -0.000000 1.000000
vt 0.639057577 0.530418873
vn 0.000000 0.000000 -1.000000
vt 0.625820279 0.530418813
vn 0.000000 0.000000 -1.000000
vt 0.639057338 0.530418873
vn 0.000000 0.000000 -1.000000
vt 0.639072061 0.520949125
vn 0.000000 0.000000 -1.000000
vt 0.625820279 0.530418813
vn 0.000000 0.000000 -1.000000
vt 0.639072061 0.520949125
vn 0.000001 -0.000000 -1.000000
vt 0.630840123 0.516141117
vn 0.000000 0.000000 -1.000000
vt 0.625820279 0.530418813
vn 0.000001 -0.000000 -1.000000
vt 0.630840123 0.516141117
vn 0.000001 -0.000000 -1.000000
vt 0.625836611 0.516141117
vn 1.000000 0.000000 -0.000000
vt 0.639057577 0.530418873
vn 1.000000 0.000000 -0.000000
vt 0.625820279 0.530418873
vn 1.000000 0.000000 -0.000000
vt 0.639072299 0.520949125
vn 1.000000 0.000000 -0.000000
vt 0.625820279 0.530418873
vn 1.000000 -0.000000 0.000001
vt 0.630840123 0.516141117
vn 1.000000 0.000000 -0.000000
vt 0.639072299 0.520949125
vn 1.000000 0.000000 -0.000000
vt 0.625820279 0.530418873
vn 1.000000 -0.000000 0.000001
vt 0.625836849 0.516141117
vn 1.000000 -0.000000 0.000001
vt 0.630840123 0.516141117
vn -1.000000 0.000000 -0.000001
vt 0.630840123 0.516141117
vn -1.000000 0.000000 -0.000001
vt 0.625836849 0.516141117
vn -1.000000 0.000000 -0.000001
vt 0.625820279 0.530418813
vn -1.000000 0.000000 -0.000001
vt 0.630840123 0.516141117
vn -1.000000 0.000000 -0.000001
vt 0.625820279 0.530418813
vn -1.000000 0.000000 0.000000
vt 0.639072299 0.520949066
vn -1.000000 0.000000 -0.000001
vt 0.625820279 0.530418813
vn -1.000000 0.000000 -0.000000
vt 0.639057577 0.530418813
vn -1.000000 0.000000 0.000000
vt 0.639072299 0.520949066
vn -1.000000 -0.000000 0.000000
vt 0.625820518 0.530418873
vn -1.000000 -0.000000 0.000000
vt 0.639072299 0.520949125
vn -1.000000 -0.000000 0.000000
vt 0.639057577 0.530418873
vn -1.000000 -0.000000 0.000000
vt 0.625820518 0.530418873
vn -1.000000 -0.000000 0.000000
vt 0.630840123 0.516141117
vn -1.000000 -0.000000 0.000000
vt 0.639072299 0.520949125
vn -1.000000 -0.000000 0.000000
vt 0.625820518 0.530418873
vn -1.000000 -0.000000 0.000000
vt 0.625836611 0.516141117
vn -1.000000 -0.000000 0.000000
vt 0.630840123 0.516141117
vn 1.000000 0.000000 0.000000
vt 0.639057577 0.530418873
vn 1.000000 0.000000 0.000000
vt 0.639072061 0.520949125
vn 1.000000 0.000000 0.000000
vt 0.625820279 0.530418873
vn 1.000000 0.000000 0.000000
vt 0.639072061 0.520949125
vn 1.000000 0.000000 0.000000
vt 0.630840123 0.516141117
vn 1.000000 0.000000 0.000000
vt 0.625820279 0.530418873
vn 1.000000 0.000000 0.000000
vt 0.625820279 0.530418873
vn 1.000000 0.000000 0.000000
vt 0.630840123 0.516141117
vn 1.000000 0.000000 0.000000
vt 0.625836849 0.516141117
vn 0.000000 0.000000 1.000000
vt 0.625820518 0.530418873
vn 0.000000 0.000000 1.000000
vt 0.639057338 0.530418873
vn 0.000000 0.000000 1.000000
vt 0.639072299 0.520949125
vn 0.000000 0.000000 1.000000
vt 0.630840123 0.516141117
vn 0.000000 0.000000 1.000000
vt 0.625820518 0.530418873
vn 0.000000 0.000000 1.000000
vt 0.639072299 0.520949125
vn 0.000000 0.000000 1.000000
vt 0.630840123 0.516141117
vn 0.000000 0.000000 1.000000
vt 0.625836611 0.516141117
vn 0.000000 0.000000 1.000000
vt 0.625820518 0.530418873
vn -0.000000 1.000000 0.000000
vt 0.642874599 0.519477189
vn -0.000000 1.000000 0.000000
vt 0.639883876 0.503521681
vn -0.000000 1.000000 0.000000
vt 0.639883876 0.516439378
vn -0.000000 1.000000 0.000000
vt 0.642874599 0.519477189
vn -0.000000 1.000000 0.000000
vt 0.642874837 0.500483811
vn -0.000000 1.000000 0.000000
vt 0.639883876 0.503521681
vn -0.000000 1.000000 0.000000
vt 0.642874599 0.519477189
vn 0.000000 1.000000 -0.000000
vt 0.655814052 0.500483811
vn -0.000000 1.000000 0.000000
vt 0.642874837 0.500483811
vn -0.000000 1.000000 0.000000
vt 0.642874599 0.519477189
vn 0.000000 1.000000 -0.000000
vt 0.655814052 0.519477248
vn 0.000000 1.000000 -0.000000
vt 0.655814052 0.500483811
s 1
f 1/1/1 2/2/2 3/3/3
f 2/4/4 4/5/5 3/6/6
s 2
f 1/7/7 5/8/8 6/9/9
f 1/10/10 6/11/11 7/12/12
s 3
f 8/13/13 9/14/14 3/15/15
f 8/16/16 10/17/17 9/18/18
s 4
f 4/19/19 11/20/20 12/21/21
f 4/22/22 2/23/23 11/24/24
s 5
f 13/25/25 14/26/26 15/27/27
f 14/28/28 16/29/29 15/30/30
s 6
f 13/31/31 17/32/32 18/33/33
f 13/34/34 15/35/35 17/36/36
s 7
f 19/37/37 18/38/38 20/39/39
f 18/40/40 17/41/41 20/42/42
s 8
f 21/43/43 22/44/44 5/45/45
f 22/46/46 23/47/47 5/48/48
s 9
f 24/49/49 25/50/50 26/51/51
f 25/52/52 27/53/53 26/54/54
s 10
f 28/55/55 29/56/56 9/57/57
f 28/58/58 30/59/59 29/60/60
s 11
f 12/61/61 31/62/62 32/63/63
f 12/64/64 11/65/65 31/66/66
s 12
f 3/67/67 9/68/68 16/69/69
f 9/70/70 29/71/71 16/72/72
f 1/175/175 21/176/176 5/177/177
f 1/178/178 14/179/179 21/180/180
f 1/181/181 16/182/182 14/183/183
f 1/184/184 3/185/185 16/186/186
s 13
f 16/73/73 33/74/74 34/75/75
f 16/76/76 29/77/77 33/78/78
s 14
f 35/79/79 21/80/80 14/81/81
f 35/82/82 36/83/83 21/84/84
s 15
f 37/85/85 38/86/86 39/87/87
f 38/88/88 40/89/89 39/90/90
s 16
f 23/91/91 40/92/92 38/93/93
f 23/94/94 22/95/95 40/96/96
s 17
f 28/97/97 27/98/98 30/99/99
f 27/100/100 25/101/101 30/102/102
s 18
f 7/103/103 31/104/104 1/105/105
f 31/106/106 2/107/107 1/108/108
f 31/109/109 11/110/110 2/111/111
s 19
f 20/112/112 17/113/113 15/114/114
f 20/115/115 15/116/116 16/117/117
f 20/118/118 16/119/119 34/120/120
s 20
f 19/121/121 35/122/122 14/123/123
f 19/124/124 14/125/125 13/126/126
f 19/127/127 13/128/128 18/129/129
s 21
f 36/130/130 39/131/131 21/132/132
f 39/133/133 22/134/134 21/135/135
f 39/136/136 40/137/137 22/138/138
s 22
f 23/139/139 38/140/140 37/141/141
f 23/142/142 37/143/143 5/144/144
f 37/145/145 6/146/146 5/147/147
s 23
f 26/148/148 9/149/149 10/150/150
f 26/151/151 28/152/152 9/153/153
f 26/154/154 27/155/155 28/156/156
s 24
f 33/157/157 29/158/158 24/159/159
f 29/160/160 30/161/161 24/162/162
f 24/163/163 30/164/164 25/165/165
s 25
f 32/166/166 8/167/167 3/168/168
f 4/169/169 32/170/170 3/171/171
f 4/172/172 12/173/173 32/174/174
