# Spring Unit export, Created by Beherith mysterme@gmail.com with the help of Muon 
# arguments of an object 'o' piecename:
# Mxyz = midpoint of an s3o
# r = unit radius
# h = height
#			 t1 t2 = textures 1 and 2
# Oxyz = piece offset
# p = parent
o base,ox=-0.00,oy=0.00,oz=0.00,p=,mx=-0.00,my=9.00,mz=-0.00,r=21.00,h=21.00,t1=cor_color.dds,t2=cor_other.dds
v 4.927072 19.054035 4.927069
vn 1.691951 1.515065 1.691950
vt 0.427425295 0.861864984
v 4.927072 15.029905 8.530497
vn 1.691951 1.515065 1.691950
vt 0.404047906 0.847032011
v 8.530499 15.029905 4.927069
vn 1.691951 1.515065 1.691950
vt 0.404047906 0.876698017
v -4.927754 19.054035 4.927069
vn -1.691951 1.515065 1.691950
vt 0.427425295 0.861864984
v -8.531180 15.029905 4.927069
vn -1.691951 1.515065 1.691950
vt 0.404047906 0.847032011
v -4.927754 15.029905 8.530497
vn -1.691951 1.515065 1.691950
vt 0.404047906 0.876698017
v 4.927072 19.054033 -4.927758
vn 1.691950 1.515065 -1.691951
vt 0.427486330 0.861869991
v 8.530499 15.029904 -4.927757
vn 1.691950 1.515065 -1.691951
vt 0.404047906 0.847037017
v 4.927072 15.029904 -8.531182
vn 1.691950 1.515065 -1.691951
vt 0.404047906 0.876703024
v -4.927754 19.054033 -4.927758
vn -1.691950 1.515065 -1.691951
vt 0.427486330 0.861864984
v -4.927754 15.029904 -8.531182
vn -1.691950 1.515065 -1.691951
vt 0.404047906 0.847032011
v -8.531180 15.029904 -4.927757
vn -1.691950 1.515065 -1.691951
vt 0.404047906 0.876698017
v -4.927754 10.971934 8.530497
vn -0.000000 0.000000 2.930545
vt 0.063759938 0.494480997
v -4.927754 0.000383 8.530499
vn -0.000000 0.000000 2.930545
vt 0.122515686 0.494480997
v 4.927072 10.971934 8.530497
vn -0.000000 0.000000 2.930545
vt 0.063759938 0.435885012
vn -0.000000 0.000000 2.930545
vt 0.122515686 0.494480997
v 4.927072 0.000383 8.530499
vn -0.000000 0.000000 2.930545
vt 0.122515917 0.435885012
vn -0.000000 0.000000 2.930545
vt 0.063759938 0.435885012
v -8.531180 10.971932 -4.927756
vn -2.930545 0.000000 0.000000
vt 0.063759938 0.494480997
v -8.531180 0.000380 -4.927754
vn -2.930545 0.000000 0.000000
vt 0.122515917 0.494480997
v -8.531180 10.971933 4.927070
vn -2.930545 0.000000 0.000000
vt 0.063759707 0.435885012
vn -2.930545 0.000000 0.000000
vt 0.122515917 0.494480997
v -8.531180 0.000382 4.927072
vn -2.930545 0.000000 0.000000
vt 0.122516148 0.435885012
vn -2.930545 0.000000 0.000000
vt 0.063759707 0.435885012
v 4.927072 10.971931 -8.531181
vn -0.000000 -0.000000 -2.930545
vt 0.063759707 0.494480997
v 4.927072 0.000380 -8.531180
vn -0.000000 -0.000000 -2.930545
vt 0.122515686 0.494480997
v -4.927754 10.971931 -8.531181
vn -0.000000 -0.000000 -2.930545
vt 0.063759707 0.435885012
vn -0.000000 -0.000000 -2.930545
vt 0.122515686 0.494480997
v -4.927754 0.000380 -8.531180
vn -0.000000 -0.000000 -2.930545
vt 0.122515686 0.435885012
vn -0.000000 -0.000000 -2.930545
vt 0.063759707 0.435885012
v 8.530499 10.971933 4.927070
vn 2.930545 0.000000 -0.000000
vt 0.063759938 0.494480997
v 8.530499 0.000382 4.927072
vn 2.930545 0.000000 -0.000000
vt 0.122515917 0.494480997
v 8.530499 10.971932 -4.927756
vn 2.930545 0.000000 -0.000000
vt 0.063759707 0.435885012
vn 2.930545 0.000000 -0.000000
vt 0.122515917 0.494480997
v 8.530499 0.000380 -4.927754
vn 2.930545 0.000000 -0.000000
vt 0.122515917 0.435885012
vn 2.930545 0.000000 -0.000000
vt 0.063759707 0.435885012
vn -2.072208 0.000000 2.072208
vt 0.001871439 0.848791003
vn -2.072208 0.000000 2.072208
vt 0.001854918 0.876217008
vn -2.072208 0.000000 2.072208
vt 0.059488628 0.848791003
vn -2.072208 0.000000 2.072208
vt 0.001854918 0.876217008
vn -2.072208 0.000000 2.072208
vt 0.059472106 0.876217008
vn -2.072208 0.000000 2.072208
vt 0.059488628 0.848791003
vn -2.072208 -0.000000 -2.072208
vt 0.001871439 0.848791003
vn -2.072208 -0.000000 -2.072208
vt 0.001854918 0.876217008
vn -2.072208 -0.000000 -2.072208
vt 0.059488628 0.848791003
vn -2.072208 -0.000000 -2.072208
vt 0.001854918 0.876217008
vn -2.072208 -0.000000 -2.072208
vt 0.059472106 0.876217008
vn -2.072208 -0.000000 -2.072208
vt 0.059488628 0.848791003
vn 2.072208 -0.000000 -2.072208
vt 0.001871209 0.848791003
vn 2.072208 -0.000000 -2.072208
vt 0.001854689 0.876217008
vn 2.072208 -0.000000 -2.072208
vt 0.059488628 0.848791003
vn 2.072208 -0.000000 -2.072208
vt 0.001854689 0.876217008
vn 2.072208 -0.000000 -2.072208
vt 0.059472106 0.876217008
vn 2.072208 -0.000000 -2.072208
vt 0.059488628 0.848791003
vn 2.072208 0.000000 2.072208
vt 0.001855148 0.876217008
vn 2.072208 0.000000 2.072208
vt 0.059472106 0.876217008
vn 2.072208 0.000000 2.072208
vt 0.001871439 0.848791003
vn 2.072208 0.000000 2.072208
vt 0.059472106 0.876217008
vn 2.072208 0.000000 2.072208
vt 0.059488628 0.848791003
vn 2.072208 0.000000 2.072208
vt 0.001871439 0.848791003
vn 2.072208 0.000000 2.072208
vt 0.060165290 0.735610008
vn 2.072208 0.000000 2.072208
vt 0.060160015 0.754517972
vn 2.072208 0.000000 2.072208
vt 0.038009528 0.735610008
vn 2.072208 0.000000 2.072208
vt 0.060160015 0.754517972
vn 2.072208 0.000000 2.072208
vt 0.038004253 0.754517972
vn 2.072208 0.000000 2.072208
vt 0.038009528 0.735610008
vn -2.072208 0.000000 2.072208
vt 0.038004253 0.754517972
vn -2.072208 0.000000 2.072208
vt 0.060160015 0.754517972
vn -2.072208 0.000000 2.072208
vt 0.038009528 0.735610008
vn -2.072208 0.000000 2.072208
vt 0.060160015 0.754517972
vn -2.072208 0.000000 2.072208
vt 0.060165290 0.735610008
vn -2.072208 0.000000 2.072208
vt 0.038009528 0.735610008
vn -2.072208 -0.000000 -2.072208
vt 0.060160015 0.754517972
vn -2.072208 -0.000000 -2.072208
vt 0.038004253 0.754517972
vn -2.072208 -0.000000 -2.072208
vt 0.060165290 0.735610008
vn -2.072208 -0.000000 -2.072208
vt 0.038004253 0.754517972
vn -2.072208 -0.000000 -2.072208
vt 0.038009528 0.735610008
vn -2.072208 -0.000000 -2.072208
vt 0.060165290 0.735610008
vn 2.072208 -0.000000 -2.072208
vt 0.038004022 0.754517972
vn 2.072208 -0.000000 -2.072208
vt 0.060160015 0.754517972
vn 2.072208 -0.000000 -2.072208
vt 0.038009528 0.735610008
vn 2.072208 -0.000000 -2.072208
vt 0.060160015 0.754517972
vn 2.072208 -0.000000 -2.072208
vt 0.060165290 0.735610008
vn 2.072208 -0.000000 -2.072208
vt 0.038009528 0.735610008
v -15.791180 9.542302 -4.110288
vn -0.000000 2.624169 -0.000000
vt 0.170707762 0.427125990
v -15.791180 9.542304 4.109601
vn -0.000000 2.624169 -0.000000
vt 0.102042980 0.427125990
v -8.328387 9.542302 -4.110288
vn -0.000000 2.624169 -0.000000
vt 0.170655444 0.489441007
vn -0.000000 2.624169 -0.000000
vt 0.102042980 0.427125990
v -8.328387 9.542304 4.109601
vn -0.000000 2.624169 -0.000000
vt 0.101990893 0.489441007
vn -0.000000 2.624169 -0.000000
vt 0.170655444 0.489441007
v -15.791180 0.000380 -4.110287
vn -2.930545 0.000000 0.000000
vt 0.170686424 0.422610015
v -15.791180 0.000382 4.109601
vn -2.930545 0.000000 0.000000
vt 0.102021873 0.422610015
vn -2.930545 0.000000 0.000000
vt 0.170699045 0.493956000
vn -2.930545 0.000000 0.000000
vt 0.102021873 0.422610015
vn -2.930545 0.000000 0.000000
vt 0.102034487 0.493956000
vn -2.930545 0.000000 0.000000
vt 0.170699045 0.493956000
v -8.328387 0.000380 -4.110287
vn -0.000000 -0.000000 -2.930545
vt 0.167482302 0.422610015
vn -0.000000 -0.000000 -2.930545
vt 0.105190419 0.422610015
vn -0.000000 -0.000000 -2.930545
vt 0.167481616 0.493956000
vn -0.000000 -0.000000 -2.930545
vt 0.105190419 0.422610015
vn -0.000000 -0.000000 -2.930545
vt 0.105201893 0.493956000
vn -0.000000 -0.000000 -2.930545
vt 0.167481616 0.493956000
vn -0.000000 0.000000 2.930545
vt 0.167507544 0.422610015
v -8.328387 0.000382 4.109601
vn -0.000000 0.000000 2.930545
vt 0.105165869 0.422610015
vn -0.000000 0.000000 2.930545
vt 0.167519018 0.493956000
vn -0.000000 0.000000 2.930545
vt 0.105165869 0.422610015
vn -0.000000 0.000000 2.930545
vt 0.105164722 0.493956000
vn -0.000000 0.000000 2.930545
vt 0.167519018 0.493956000
v -4.110287 9.542306 15.790496
vn -0.000000 2.624169 -0.000000
vt 0.170707524 0.427125990
v 4.109601 9.542306 15.790496
vn -0.000000 2.624169 -0.000000
vt 0.102042980 0.427125990
v -4.110287 9.542305 8.327703
vn -0.000000 2.624169 -0.000000
vt 0.170655444 0.489441007
vn -0.000000 2.624169 -0.000000
vt 0.102042980 0.427125990
v 4.109601 9.542305 8.327703
vn -0.000000 2.624169 -0.000000
vt 0.101990893 0.489441007
vn -0.000000 2.624169 -0.000000
vt 0.170655444 0.489441007
v -4.110287 0.000384 15.790498
vn -0.000000 0.000000 2.930545
vt 0.170686424 0.422610015
v 4.109601 0.000384 15.790498
vn -0.000000 0.000000 2.930545
vt 0.102021873 0.422610015
vn -0.000000 0.000000 2.930545
vt 0.170699045 0.493956000
vn -0.000000 0.000000 2.930545
vt 0.102021873 0.422610015
vn -0.000000 0.000000 2.930545
vt 0.102034487 0.493956000
vn -0.000000 0.000000 2.930545
vt 0.170699045 0.493956000
v -4.110287 0.000383 8.327705
vn -2.930545 0.000000 0.000000
vt 0.167482540 0.422610015
vn -2.930545 0.000000 0.000000
vt 0.105190881 0.422610015
vn -2.930545 0.000000 0.000000
vt 0.167481616 0.493956000
vn -2.930545 0.000000 0.000000
vt 0.105190881 0.422610015
vn -2.930545 0.000000 0.000000
vt 0.105202124 0.493956000
vn -2.930545 0.000000 0.000000
vt 0.167481616 0.493956000
vn 2.930545 0.000000 -0.000000
vt 0.167507544 0.422610015
v 4.109601 0.000383 8.327705
vn 2.930545 0.000000 -0.000000
vt 0.105165638 0.422610015
vn 2.930545 0.000000 -0.000000
vt 0.167519018 0.493956000
vn 2.930545 0.000000 -0.000000
vt 0.105165638 0.422610015
vn 2.930545 0.000000 -0.000000
vt 0.105164722 0.493956000
vn 2.930545 0.000000 -0.000000
vt 0.167519018 0.493956000
v 15.790498 9.542304 4.109603
vn -0.000000 2.624169 -0.000000
vt 0.170707762 0.427125990
v 15.790498 9.542302 -4.110286
vn -0.000000 2.624169 -0.000000
vt 0.102042980 0.427125990
v 8.327705 9.542304 4.109603
vn -0.000000 2.624169 -0.000000
vt 0.170655444 0.489441007
vn -0.000000 2.624169 -0.000000
vt 0.102042980 0.427125990
v 8.327705 9.542302 -4.110286
vn -0.000000 2.624169 -0.000000
vt 0.101990893 0.489441007
vn -0.000000 2.624169 -0.000000
vt 0.170655444 0.489441007
v 15.790498 0.000382 4.109604
vn 2.930545 0.000000 -0.000000
vt 0.170686185 0.422610015
v 15.790498 0.000380 -4.110284
vn 2.930545 0.000000 -0.000000
vt 0.102021642 0.422610015
vn 2.930545 0.000000 -0.000000
vt 0.170699045 0.493956000
vn 2.930545 0.000000 -0.000000
vt 0.102021642 0.422610015
vn 2.930545 0.000000 -0.000000
vt 0.102034487 0.493956000
vn 2.930545 0.000000 -0.000000
vt 0.170699045 0.493956000
v 8.327705 0.000382 4.109604
vn -0.000000 0.000000 2.930545
vt 0.167482764 0.422610015
vn -0.000000 0.000000 2.930545
vt 0.105190881 0.422610015
vn -0.000000 0.000000 2.930545
vt 0.167481616 0.493956000
vn -0.000000 0.000000 2.930545
vt 0.105190881 0.422610015
vn -0.000000 0.000000 2.930545
vt 0.105202354 0.493956000
vn -0.000000 0.000000 2.930545
vt 0.167481616 0.493956000
vn -0.000000 -0.000000 -2.930545
vt 0.167507321 0.422610015
v 8.327705 0.000380 -4.110284
vn -0.000000 -0.000000 -2.930545
vt 0.105165407 0.422610015
vn -0.000000 -0.000000 -2.930545
vt 0.167519018 0.493956000
vn -0.000000 -0.000000 -2.930545
vt 0.105165407 0.422610015
vn -0.000000 -0.000000 -2.930545
vt 0.105164722 0.493956000
vn -0.000000 -0.000000 -2.930545
vt 0.167519018 0.493956000
v 4.109603 9.542300 -15.791182
vn -0.000000 2.624169 -0.000000
vt 0.170707762 0.427125990
v -4.110284 9.542300 -15.791182
vn -0.000000 2.624169 -0.000000
vt 0.102043211 0.427125990
v 4.109603 9.542302 -8.328389
vn -0.000000 2.624169 -0.000000
vt 0.170655444 0.489441007
vn -0.000000 2.624169 -0.000000
vt 0.102043211 0.427125990
v -4.110284 9.542302 -8.328389
vn -0.000000 2.624169 -0.000000
vt 0.101990893 0.489441007
vn -0.000000 2.624169 -0.000000
vt 0.170655444 0.489441007
v 4.109603 0.000378 -15.791180
vn -0.000000 -0.000000 -2.930545
vt 0.170686185 0.422610015
v -4.110284 0.000378 -15.791180
vn -0.000000 -0.000000 -2.930545
vt 0.102021873 0.422610015
vn -0.000000 -0.000000 -2.930545
vt 0.170699045 0.493956000
vn -0.000000 -0.000000 -2.930545
vt 0.102021873 0.422610015
vn -0.000000 -0.000000 -2.930545
vt 0.102034487 0.493956000
vn -0.000000 -0.000000 -2.930545
vt 0.170699045 0.493956000
v 4.109603 0.000380 -8.328387
vn 2.930545 0.000000 -0.000000
vt 0.167482540 0.422610015
vn 2.930545 0.000000 -0.000000
vt 0.105190419 0.422610015
vn 2.930545 0.000000 -0.000000
vt 0.167481616 0.493956000
vn 2.930545 0.000000 -0.000000
vt 0.105190419 0.422610015
vn 2.930545 0.000000 -0.000000
vt 0.105202124 0.493956000
vn 2.930545 0.000000 -0.000000
vt 0.167481616 0.493956000
vn -2.930545 0.000000 0.000000
vt 0.167507544 0.422610015
v -4.110284 0.000380 -8.328387
vn -2.930545 0.000000 0.000000
vt 0.105165638 0.422610015
vn -2.930545 0.000000 0.000000
vt 0.167519018 0.493956000
vn -2.930545 0.000000 0.000000
vt 0.105165638 0.422610015
vn -2.930545 0.000000 0.000000
vt 0.105164722 0.493956000
vn -2.930545 0.000000 0.000000
vt 0.167519018 0.493956000
vn -0.000000 1.855568 2.072207
vt 0.059324108 0.970420003
v -0.000341 19.054035 4.927069
vn -0.000000 1.855568 2.072207
vt 0.030698618 0.970420003
vn -0.000000 1.855568 2.072207
vt 0.059323646 0.998296976
vn -0.000000 1.855568 2.072207
vt 0.030698618 0.970420003
v -0.000341 15.029905 8.530497
vn -0.000000 1.855568 2.072207
vt 0.030697701 0.998296976
vn -0.000000 1.855568 2.072207
vt 0.059323646 0.998296976
vn -0.000000 1.855568 2.072207
vt 0.030698618 0.970420003
vn -0.000000 1.855568 2.072207
vt 0.001645196 0.998296976
vn -0.000000 1.855568 2.072207
vt 0.030697701 0.998296976
vn -0.000000 1.855568 2.072207
vt 0.030698618 0.970420003
vn -0.000000 1.855568 2.072207
vt 0.001645884 0.970420003
vn -0.000000 1.855568 2.072207
vt 0.001645196 0.998296976
vn -2.072208 1.855568 -0.000000
vt 0.059324108 0.970422029
v -4.927754 19.054035 -0.000344
vn -2.072208 1.855568 -0.000000
vt 0.030698618 0.970422029
vn -2.072208 1.855568 -0.000000
vt 0.059323419 0.998299003
vn -2.072208 1.855568 -0.000000
vt 0.030698618 0.970422029
v -8.531180 15.029904 -0.000344
vn -2.072208 1.855568 -0.000000
vt 0.030697931 0.998299003
vn -2.072208 1.855568 -0.000000
vt 0.059323419 0.998299003
vn -2.072208 1.855568 -0.000000
vt 0.030698618 0.970422029
vn -2.072208 1.855568 0.000000
vt 0.001645425 0.998299003
vn -2.072208 1.855568 -0.000000
vt 0.030697931 0.998299003
vn -2.072208 1.855568 -0.000000
vt 0.030698618 0.970422029
vn -2.072208 1.855568 -0.000000
vt 0.001645884 0.970422029
vn -2.072208 1.855568 0.000000
vt 0.001645425 0.998299003
vn -0.000000 1.855568 -2.072208
vt 0.059324108 0.970423996
v -0.000341 19.054033 -4.927758
vn -0.000000 1.855568 -2.072208
vt 0.030698618 0.970423996
vn -0.000000 1.855568 -2.072208
vt 0.059323419 0.998301029
vn -0.000000 1.855568 -2.072208
vt 0.030698618 0.970423996
v -0.000341 15.029904 -8.531182
vn -0.000000 1.855568 -2.072208
vt 0.030697701 0.998301029
vn -0.000000 1.855568 -2.072208
vt 0.059323419 0.998301029
vn -0.000000 1.855568 -2.072208
vt 0.030698618 0.970423996
vn -0.000000 1.855568 -2.072208
vt 0.001645196 0.998301029
vn -0.000000 1.855568 -2.072208
vt 0.030697701 0.998301029
vn -0.000000 1.855568 -2.072208
vt 0.030698618 0.970423996
vn -0.000000 1.855568 -2.072208
vt 0.001645884 0.970423996
vn -0.000000 1.855568 -2.072208
vt 0.001645196 0.998301029
vn 2.072207 1.855569 -0.000000
vt 0.059324108 0.970422029
v 4.927072 19.054035 -0.000344
vn 2.072207 1.855569 -0.000000
vt 0.030698618 0.970422029
vn 2.072207 1.855569 -0.000000
vt 0.059323419 0.998299003
vn 2.072207 1.855569 -0.000000
vt 0.030698618 0.970422029
v 8.530499 15.029904 -0.000344
vn 2.072208 1.855568 0.000000
vt 0.030697931 0.998299003
vn 2.072207 1.855569 -0.000000
vt 0.059323419 0.998299003
vn 2.072207 1.855569 -0.000000
vt 0.030698618 0.970422029
vn 2.072208 1.855568 -0.000000
vt 0.001645425 0.998299003
vn 2.072208 1.855568 0.000000
vt 0.030697931 0.998299003
vn 2.072207 1.855569 -0.000000
vt 0.030698618 0.970422029
vn 2.072208 1.855568 -0.000000
vt 0.001645884 0.970422029
vn 2.072208 1.855568 -0.000000
vt 0.001645425 0.998299003
vn -0.000000 0.000000 2.930545
vt 0.061745781 0.929435015
v -0.000341 10.971936 8.530498
vn 0.000000 0.000000 2.930545
vt 0.061743487 0.955093026
vn -0.000000 0.000000 2.930545
vt 0.077987097 0.929435015
vn 0.000000 0.000000 2.930545
vt 0.061743487 0.955093026
vn -0.000000 0.000001 2.930545
vt 0.077986635 0.955093026
vn -0.000000 0.000000 2.930545
vt 0.077987097 0.929435015
vn 0.000000 0.000000 2.930545
vt 0.061743487 0.955093026
vn -0.000000 0.000001 2.930545
vt 0.077987097 0.980750978
vn -0.000000 0.000001 2.930545
vt 0.077986635 0.955093026
vn 0.000000 0.000000 2.930545
vt 0.061743487 0.955093026
vn 0.000000 0.000000 2.930545
vt 0.061745781 0.980750978
vn -0.000000 0.000001 2.930545
vt 0.077987097 0.980750978
vn -2.930545 0.000000 0.000000
vt 0.061745781 0.929434001
v -8.531180 10.971935 -0.000343
vn -2.930545 0.000000 0.000000
vt 0.061743256 0.955092013
vn -2.930545 0.000000 0.000000
vt 0.077987328 0.929434001
vn -2.930545 0.000000 0.000000
vt 0.061743256 0.955092013
vn -2.930545 0.000000 0.000000
vt 0.077986866 0.955092013
vn -2.930545 0.000000 0.000000
vt 0.077987328 0.929434001
vn -2.930545 0.000000 0.000000
vt 0.061743256 0.955092013
vn -2.930545 0.000000 0.000000
vt 0.077987097 0.980750024
vn -2.930545 0.000000 0.000000
vt 0.077986866 0.955092013
vn -2.930545 0.000000 0.000000
vt 0.061743256 0.955092013
vn -2.930545 0.000000 0.000000
vt 0.061745550 0.980750024
vn -2.930545 0.000000 0.000000
vt 0.077987097 0.980750024
vn -0.000000 -0.000000 -2.930545
vt 0.061745550 0.929431975
v -0.000341 10.971933 -8.531180
vn 0.000000 -0.000000 -2.930545
vt 0.061743256 0.955089986
vn -0.000000 -0.000000 -2.930545
vt 0.077987097 0.929431975
vn 0.000000 -0.000000 -2.930545
vt 0.061743256 0.955089986
vn -0.000000 -0.000001 -2.930545
vt 0.077986635 0.955089986
vn -0.000000 -0.000000 -2.930545
vt 0.077987097 0.929431975
vn 0.000000 -0.000000 -2.930545
vt 0.061743256 0.955089986
vn -0.000000 -0.000001 -2.930545
vt 0.077986866 0.980747998
vn -0.000000 -0.000001 -2.930545
vt 0.077986635 0.955089986
vn 0.000000 -0.000000 -2.930545
vt 0.061743256 0.955089986
vn 0.000000 -0.000000 -2.930545
vt 0.061745550 0.980747998
vn -0.000000 -0.000001 -2.930545
vt 0.077986866 0.980747998
vn 2.930545 0.000000 -0.000000
vt 0.061745781 0.929431021
v 8.530499 10.971935 -0.000343
vn 2.930545 0.000000 -0.000000
vt 0.061743256 0.955088973
vn 2.930545 0.000000 -0.000000
vt 0.077987097 0.929431021
vn 2.930545 0.000000 -0.000000
vt 0.061743256 0.955088973
vn 2.930545 0.000000 -0.000000
vt 0.077986635 0.955088973
vn 2.930545 0.000000 -0.000000
vt 0.077987097 0.929431021
vn 2.930545 0.000000 -0.000000
vt 0.061743256 0.955088973
vn 2.930545 0.000000 -0.000000
vt 0.077987097 0.980746984
vn 2.930545 0.000000 -0.000000
vt 0.077986635 0.955088973
vn 2.930545 0.000000 -0.000000
vt 0.061743256 0.955088973
vn 2.930545 0.000000 -0.000000
vt 0.061745550 0.980746984
vn 2.930545 0.000000 -0.000000
vt 0.077987097 0.980746984
vn -0.000000 2.624169 -0.000000
vt 0.059446864 0.998461008
vn -0.000000 2.624169 -0.000000
vt 0.059446864 0.976491988
vn -0.000000 2.624169 -0.000000
vt 0.038755946 0.998461008
vn -0.000000 2.624169 -0.000000
vt 0.059446864 0.976491988
vn -0.000000 2.624169 -0.000000
vt 0.059446864 0.998453975
vn -0.000000 2.624169 -0.000000
vt 0.038755946 0.998453975
vn -0.000000 2.624169 -0.000000
vt 0.059446864 0.976491988
v -0.000341 19.054035 -0.000344
vn -0.000000 2.624169 -0.000000
vt 0.038755946 0.976491988
vn -0.000000 2.624169 -0.000000
vt 0.038755946 0.998461008
vn -0.000000 2.624169 -0.000000
vt 0.059446864 0.976491988
vn -0.000000 2.624169 -0.000000
vt 0.038755946 0.998453975
vn -0.000000 2.624169 -0.000000
vt 0.038755946 0.976491988
vn -0.000000 2.624169 -0.000000
vt 0.038755946 0.998461008
vn -0.000000 2.624169 -0.000000
vt 0.038755946 0.976491988
vn -0.000000 2.624169 -0.000000
vt 0.059446864 0.998461008
vn -0.000000 2.624169 -0.000000
vt 0.038755946 0.976491988
vn -0.000000 2.624169 -0.000000
vt 0.059446864 0.976491988
vn -0.000000 2.624169 -0.000000
vt 0.059446864 0.998461008
vn -0.000000 2.624169 -0.000000
vt 0.038755946 0.976491988
vn -0.000000 2.624169 -0.000000
vt 0.038755946 0.998453975
vn -0.000000 2.624169 -0.000000
vt 0.059446864 0.998453975
vn -0.000000 2.624169 -0.000000
vt 0.038755946 0.976491988
vn -0.000000 2.624169 -0.000000
vt 0.059446864 0.998453975
vn -0.000000 2.624169 -0.000000
vt 0.059446864 0.976491988
s off
f 1/1/1 2/2/2 3/3/3
f 4/4/4 5/5/5 6/6/6
f 7/7/7 8/8/8 9/9/9
f 10/10/10 11/11/11 12/12/12
s 1
f 13/13/13 14/14/14 15/15/15
f 14/16/16 16/17/17 15/18/18
s 2
f 17/19/19 18/20/20 19/21/21
f 18/22/22 20/23/23 19/24/24
s 3
f 21/25/25 22/26/26 23/27/27
f 22/28/28 24/29/29 23/30/30
s 4
f 25/31/31 26/32/32 27/33/33
f 26/34/34 28/35/35 27/36/36
s 5
f 19/37/37 20/38/38 13/39/39
f 20/40/40 14/41/41 13/42/42
f 19/67/67 13/68/68 5/69/69
f 13/70/70 6/71/71 5/72/72
s 6
f 23/43/43 24/44/44 17/45/45
f 24/46/46 18/47/47 17/48/48
f 23/73/73 17/74/74 11/75/75
f 17/76/76 12/77/77 11/78/78
s 7
f 27/49/49 28/50/50 21/51/51
f 28/52/52 22/53/53 21/54/54
f 27/79/79 21/80/80 8/81/81
f 21/82/82 9/83/83 8/84/84
s 8
f 16/55/55 26/56/56 15/57/57
f 26/58/58 25/59/59 15/60/60
f 2/61/61 15/62/62 3/63/63
f 15/64/64 25/65/65 3/66/66
s 9
f 29/85/85 30/86/86 31/87/87
f 30/88/88 32/89/89 31/90/90
s 10
f 33/91/91 34/92/92 29/93/93
f 34/94/94 30/95/95 29/96/96
s 11
f 35/97/97 33/98/98 31/99/99
f 33/100/100 29/101/101 31/102/102
s 12
f 34/103/103 36/104/104 30/105/105
f 36/106/106 32/107/107 30/108/108
s 13
f 37/109/109 38/110/110 39/111/111
f 38/112/112 40/113/113 39/114/114
s 14
f 41/115/115 42/116/116 37/117/117
f 42/118/118 38/119/119 37/120/120
s 15
f 43/121/121 41/122/122 39/123/123
f 41/124/124 37/125/125 39/126/126
s 16
f 42/127/127 44/128/128 38/129/129
f 44/130/130 40/131/131 38/132/132
s 17
f 45/133/133 46/134/134 47/135/135
f 46/136/136 48/137/137 47/138/138
s 18
f 49/139/139 50/140/140 45/141/141
f 50/142/142 46/143/143 45/144/144
s 19
f 51/145/145 49/146/146 47/147/147
f 49/148/148 45/149/149 47/150/150
s 20
f 50/151/151 52/152/152 46/153/153
f 52/154/154 48/155/155 46/156/156
s 21
f 53/157/157 54/158/158 55/159/159
f 54/160/160 56/161/161 55/162/162
s 22
f 57/163/163 58/164/164 53/165/165
f 58/166/166 54/167/167 53/168/168
s 23
f 59/169/169 57/170/170 55/171/171
f 57/172/172 53/173/173 55/174/174
s 24
f 58/175/175 60/176/176 54/177/177
f 60/178/178 56/179/179 54/180/180
s 25
f 1/181/181 61/182/182 2/183/183
f 61/184/184 62/185/185 2/186/186
f 61/187/187 6/188/188 62/189/189
f 61/190/190 4/191/191 6/192/192
s 26
f 4/193/193 63/194/194 5/195/195
f 63/196/196 64/197/197 5/198/198
f 63/199/199 12/200/200 64/201/201
f 63/202/202 10/203/203 12/204/204
s 27
f 10/205/205 65/206/206 11/207/207
f 65/208/208 66/209/209 11/210/210
f 65/211/211 9/212/212 66/213/213
f 65/214/214 7/215/215 9/216/216
s 28
f 7/217/217 67/218/218 8/219/219
f 67/220/220 68/221/221 8/222/222
f 67/223/223 3/224/224 68/225/225
f 67/226/226 1/227/227 3/228/228
s 29
f 13/229/229 69/230/230 6/231/231
f 69/232/232 62/233/233 6/234/234
f 69/235/235 2/236/236 62/237/237
f 69/238/238 15/239/239 2/240/240
s 30
f 17/241/241 70/242/242 12/243/243
f 70/244/244 64/245/245 12/246/246
f 70/247/247 5/248/248 64/249/249
f 70/250/250 19/251/251 5/252/252
s 31
f 21/253/253 71/254/254 9/255/255
f 71/256/256 66/257/257 9/258/258
f 71/259/259 11/260/260 66/261/261
f 71/262/262 23/263/263 11/264/264
s 32
f 25/265/265 72/266/266 3/267/267
f 72/268/268 68/269/269 3/270/270
f 72/271/271 8/272/272 68/273/273
f 72/274/274 27/275/275 8/276/276
s 33
f 1/277/277 67/278/278 61/279/279
f 67/280/280 7/281/281 65/282/282
f 67/283/283 73/284/284 61/285/285
f 67/286/286 65/287/287 73/288/288
f 61/289/289 73/290/290 4/291/291
f 73/292/292 63/293/293 4/294/294
f 73/295/295 65/296/296 10/297/297
f 73/298/298 10/299/299 63/300/300
